<svg aria-hidden="true" style="position: absolute; width: 0; height: 0; overflow: hidden;" version="1.1" xmlns="http://www.w3.org/2000/svg" xmlns:xlink="http://www.w3.org/1999/xlink">
<defs>
<symbol id="ic-chevron-thin-left" viewBox="0 0 20 20">
<path d="M13.891 17.418c0.268 0.272 0.268 0.709 0 0.979s-0.701 0.271-0.969 0l-7.83-7.908c-0.268-0.27-0.268-0.707 0-0.979l7.83-7.908c0.268-0.27 0.701-0.27 0.969 0s0.268 0.709 0 0.979l-7.141 7.419 7.141 7.418z"></path>
</symbol>
<symbol id="ic-chevron-thin-right" viewBox="0 0 20 20">
<path d="M13.25 10l-7.141-7.42c-0.268-0.27-0.268-0.707 0-0.979 0.268-0.27 0.701-0.27 0.969 0l7.83 7.908c0.268 0.271 0.268 0.709 0 0.979l-7.83 7.908c-0.268 0.271-0.701 0.27-0.969 0s-0.268-0.707 0-0.979l7.141-7.417z"></path>
</symbol>
<symbol id="ic-triangle-down" viewBox="0 0 20 20">
<path d="M5 6h10l-5 9-5-9z"></path>
</symbol>
<symbol id="ic-email" viewBox="0 0 20 20">
<path d="M14.608 12.172c0 0.84 0.239 1.175 0.864 1.175 1.393 0 2.28-1.775 2.28-4.727 0-4.512-3.288-6.672-7.393-6.672-4.223 0-8.064 2.832-8.064 8.184 0 5.112 3.36 7.896 8.52 7.896 1.752 0 2.928-0.192 4.727-0.792l0.386 1.607c-1.776 0.577-3.674 0.744-5.137 0.744-6.768 0-10.393-3.72-10.393-9.456 0-5.784 4.201-9.72 9.985-9.72 6.024 0 9.215 3.6 9.215 8.016 0 3.744-1.175 6.6-4.871 6.6-1.681 0-2.784-0.672-2.928-2.161-0.432 1.656-1.584 2.161-3.145 2.161-2.088 0-3.84-1.609-3.84-4.848 0-3.264 1.537-5.28 4.297-5.28 1.464 0 2.376 0.576 2.782 1.488l0.697-1.272h2.016v7.057h0.002zM11.657 9.004c0-1.319-0.985-1.872-1.801-1.872-0.888 0-1.871 0.719-1.871 2.832 0 1.68 0.744 2.616 1.871 2.616 0.792 0 1.801-0.504 1.801-1.896v-1.68z"></path>
</symbol>
<symbol id="ic-facebook" viewBox="0 0 20 20">
<path d="M17 1h-14c-1.1 0-2 0.9-2 2v14c0 1.101 0.9 2 2 2h7v-7h-2v-2.475h2v-2.050c0-2.164 1.212-3.684 3.766-3.684l1.803 0.002v2.605h-1.197c-0.994 0-1.372 0.746-1.372 1.438v1.69h2.568l-0.568 2.474h-2v7h4c1.1 0 2-0.899 2-2v-14c0-1.1-0.9-2-2-2z"></path>
</symbol>
<symbol id="ic-instagram" viewBox="0 0 20 20">
<path d="M17 1h-14c-1.1 0-2 0.9-2 2v14c0 1.101 0.9 2 2 2h14c1.1 0 2-0.899 2-2v-14c0-1.1-0.9-2-2-2zM9.984 15.523c3.059 0 5.538-2.481 5.538-5.539 0-0.338-0.043-0.664-0.103-0.984h1.581v7.216c0 0.382-0.31 0.69-0.693 0.69h-12.614c-0.383 0-0.693-0.308-0.693-0.69v-7.216h1.549c-0.061 0.32-0.104 0.646-0.104 0.984 0 3.059 2.481 5.539 5.539 5.539zM6.523 9.984c0-1.912 1.55-3.461 3.462-3.461s3.462 1.549 3.462 3.461-1.551 3.462-3.462 3.462c-1.913 0-3.462-1.55-3.462-3.462zM16.307 6h-1.615c-0.382 0-0.692-0.312-0.692-0.692v-1.617c0-0.382 0.31-0.691 0.691-0.691h1.615c0.384 0 0.694 0.309 0.694 0.691v1.616c0 0.381-0.31 0.693-0.693 0.693z"></path>
</symbol>
<symbol id="ic-twitter" viewBox="0 0 20 20">
<path d="M17.316 6.246c0.008 0.162 0.011 0.326 0.011 0.488 0 4.99-3.797 10.742-10.74 10.742-2.133 0-4.116-0.625-5.787-1.697 0.296 0.035 0.596 0.053 0.9 0.053 1.77 0 3.397-0.604 4.688-1.615-1.651-0.031-3.046-1.121-3.526-2.621 0.23 0.043 0.467 0.066 0.71 0.066 0.345 0 0.679-0.045 0.995-0.131-1.727-0.348-3.028-1.873-3.028-3.703 0-0.016 0-0.031 0-0.047 0.509 0.283 1.092 0.453 1.71 0.473-1.013-0.678-1.68-1.832-1.68-3.143 0-0.691 0.186-1.34 0.512-1.898 1.861 2.285 4.644 3.787 7.781 3.945-0.064-0.277-0.097-0.564-0.097-0.861 0-2.084 1.689-3.773 3.774-3.773 1.086 0 2.067 0.457 2.756 1.191 0.859-0.17 1.667-0.484 2.397-0.916-0.282 0.881-0.881 1.621-1.66 2.088 0.764-0.092 1.49-0.293 2.168-0.594-0.506 0.758-1.146 1.422-1.884 1.953z"></path>
</symbol>
<symbol id="ic-youtube" viewBox="0 0 20 20">
<path d="M10 2.3c-9.828 0-10 0.874-10 7.7s0.172 7.7 10 7.7 10-0.874 10-7.7-0.172-7.7-10-7.7zM13.205 10.334l-4.49 2.096c-0.393 0.182-0.715-0.022-0.715-0.456v-3.948c0-0.433 0.322-0.638 0.715-0.456l4.49 2.096c0.393 0.184 0.393 0.484 0 0.668z"></path>
</symbol>
<symbol id="ic-search" viewBox="0 0 32 32">
<path d="M31.008 27.231l-7.58-6.447c-0.784-0.705-1.622-1.029-2.299-0.998 1.789-2.096 2.87-4.815 2.87-7.787 0-6.627-5.373-12-12-12s-12 5.373-12 12 5.373 12 12 12c2.972 0 5.691-1.081 7.787-2.87-0.031 0.677 0.293 1.515 0.998 2.299l6.447 7.58c1.104 1.226 2.907 1.33 4.007 0.23s0.997-2.903-0.23-4.007zM12 20c-4.418 0-8-3.582-8-8s3.582-8 8-8 8 3.582 8 8-3.582 8-8 8z"></path>
</symbol>
<symbol id="ic-cross" viewBox="0 0 32 32">
<path d="M31.708 25.708c-0-0-0-0-0-0l-9.708-9.708 9.708-9.708c0-0 0-0 0-0 0.105-0.105 0.18-0.227 0.229-0.357 0.133-0.356 0.057-0.771-0.229-1.057l-4.586-4.586c-0.286-0.286-0.702-0.361-1.057-0.229-0.13 0.048-0.252 0.124-0.357 0.228 0 0-0 0-0 0l-9.708 9.708-9.708-9.708c-0-0-0-0-0-0-0.105-0.104-0.227-0.18-0.357-0.228-0.356-0.133-0.771-0.057-1.057 0.229l-4.586 4.586c-0.286 0.286-0.361 0.702-0.229 1.057 0.049 0.13 0.124 0.252 0.229 0.357 0 0 0 0 0 0l9.708 9.708-9.708 9.708c-0 0-0 0-0 0-0.104 0.105-0.18 0.227-0.229 0.357-0.133 0.355-0.057 0.771 0.229 1.057l4.586 4.586c0.286 0.286 0.702 0.361 1.057 0.229 0.13-0.049 0.252-0.124 0.357-0.229 0-0 0-0 0-0l9.708-9.708 9.708 9.708c0 0 0 0 0 0 0.105 0.105 0.227 0.18 0.357 0.229 0.356 0.133 0.771 0.057 1.057-0.229l4.586-4.586c0.286-0.286 0.362-0.702 0.229-1.057-0.049-0.13-0.124-0.252-0.229-0.357z"></path>
</symbol>
</defs>
</svg>
